<?xml version="1.0" standalone="no"?>
<!DOCTYPE svg PUBLIC "-//W3C//DTD SVG 20010904//EN"
 "http://www.w3.org/TR/2001/REC-SVG-20010904/DTD/svg10.dtd">
<svg version="1.0" xmlns="http://www.w3.org/2000/svg"
 width="1024.000000pt" height="1024.000000pt" viewBox="0 0 1024.000000 1024.000000"
 preserveAspectRatio="xMidYMid meet">
<metadata>
Created by potrace 1.16, written by Peter Selinger 2001-2019
</metadata>
<g transform="translate(0.000000,1024.000000) scale(0.100000,-0.100000)"
fill="#000000" stroke="none">
<path d="M0 5120 l0 -5120 5120 0 5120 0 0 5120 0 5120 -5120 0 -5120 0 0
-5120z m5202 3009 c107 -36 182 -100 236 -202 25 -48 27 -61 27 -162 0 -101
-2 -115 -28 -168 -40 -80 -112 -151 -194 -190 -61 -29 -77 -32 -158 -32 -80 0
-97 4 -157 32 -249 117 -307 444 -113 637 93 94 256 129 387 85z m-665 -698
l52 -99 -117 -73 c-199 -124 -1120 -679 -1126 -679 -10 0 -107 174 -103 185 8
18 287 194 1162 728 33 20 65 36 70 37 6 0 33 -45 62 -99z m1953 -381 c310
-184 450 -272 450 -282 0 -4 -17 -34 -37 -67 -21 -32 -46 -73 -55 -91 l-18
-32 -57 33 c-32 18 -193 114 -358 213 -165 98 -347 207 -405 241 -87 51 -416
252 -429 261 -2 2 13 29 32 61 19 32 44 77 56 100 l21 41 262 -157 c145 -87
387 -231 538 -321z m-1292 -708 l2 -773 -112 3 -112 3 -1 160 c0 88 1 436 3
773 l2 613 108 -3 107 -3 3 -773z m-2285 340 c195 -96 270 -332 168 -529 -29
-58 -109 -131 -181 -166 -59 -29 -73 -32 -160 -32 -85 0 -102 3 -160 31 -80
38 -150 106 -186 182 -22 45 -29 75 -32 141 -9 188 75 324 239 387 54 20 78
24 155 21 79 -2 100 -7 157 -35z m4679 6 c275 -127 307 -500 57 -667 -106 -71
-215 -88 -327 -52 -264 85 -361 396 -191 611 79 100 175 142 314 137 71 -2
102 -8 147 -29z m-2945 -514 c18 -14 41 -39 50 -57 23 -43 23 -135 0 -170 -9
-14 -17 -31 -17 -37 0 -6 38 -89 85 -185 47 -96 85 -181 85 -188 0 -11 -98
-67 -119 -67 -4 0 -50 87 -102 194 l-94 194 -37 5 c-103 14 -167 137 -124 240
16 40 77 95 114 103 15 3 32 7 37 8 23 6 92 -17 122 -40z m1056 32 c78 -28
122 -97 115 -182 -8 -90 -79 -164 -159 -164 -20 0 -25 -9 -165 -307 -23 -51
-45 -93 -49 -93 -3 0 -33 14 -66 30 -53 27 -59 34 -53 53 6 19 136 287 164
338 6 11 2 34 -11 68 -24 64 -24 105 0 156 23 50 58 83 108 100 48 18 68 18
116 1z m1182 -193 c47 -78 51 -89 36 -99 -9 -6 -88 -55 -176 -109 -88 -54
-181 -111 -207 -127 l-48 -30 0 -67 c0 -124 -47 -208 -142 -255 -42 -21 -66
-26 -128 -26 -76 0 -113 12 -185 59 -19 12 -31 7 -120 -46 -195 -116 -232
-134 -242 -121 -18 23 -93 156 -93 165 0 5 42 33 93 63 50 29 131 79 179 109
77 49 89 60 94 91 30 162 206 266 367 217 26 -8 49 -11 52 -7 3 4 82 54 177
110 95 57 198 118 228 136 30 18 57 31 59 29 2 -3 27 -44 56 -92z m-3275 -66
c58 -33 128 -75 157 -94 50 -32 52 -32 87 -18 19 8 64 15 100 15 125 0 238
-87 267 -206 6 -27 13 -54 14 -59 1 -6 82 -57 179 -115 97 -58 176 -107 176
-110 0 -3 -22 -46 -48 -97 l-47 -92 -173 101 c-160 93 -174 99 -190 85 -37
-34 -114 -59 -179 -59 -108 0 -200 60 -250 162 -9 19 -19 71 -22 115 l-6 80
-146 85 c-80 47 -178 106 -217 132 l-72 48 38 59 c20 32 45 73 54 90 l17 31
78 -46 c43 -25 125 -73 183 -107z m-760 -1047 l0 -790 -113 0 -114 0 -6 218
c-9 279 -9 1137 0 1265 l6 97 114 0 113 0 0 -790z m4710 0 l0 -790 -115 0
-115 0 0 790 0 790 115 0 115 0 0 -790z m-2307 362 c82 -41 157 -120 186 -197
29 -76 29 -204 1 -277 -44 -116 -127 -191 -254 -230 -250 -76 -505 130 -483
392 11 127 68 226 167 290 70 45 130 60 231 57 74 -3 96 -8 152 -35z m-1650
-186 c18 -7 49 -32 69 -55 l35 -41 372 0 372 0 -3 -72 -3 -73 -374 -1 c-354 0
-374 -1 -384 -19 -45 -82 -167 -108 -254 -54 -93 57 -103 201 -20 280 49 47
127 62 190 35z m3113 -5 c60 -27 96 -80 102 -146 15 -177 -186 -261 -308 -129
l-43 47 -369 -5 c-203 -3 -370 -2 -372 1 -2 3 -2 36 1 74 l6 67 373 0 372 0
21 34 c25 40 92 76 141 76 19 0 54 -9 76 -19z m-2169 -514 c55 -103 73 -77
-149 -209 l-156 -93 -11 -48 c-16 -71 -35 -111 -75 -155 -67 -73 -177 -102
-306 -79 -45 8 -46 8 -265 -124 -121 -72 -225 -133 -231 -136 -14 -5 -118 167
-107 177 4 4 80 51 168 105 88 54 183 112 211 131 l51 32 5 84 c5 94 26 144
80 194 52 48 61 52 121 68 82 21 163 7 243 -43 19 -12 37 -4 190 87 93 56 173
100 177 99 5 -1 29 -42 54 -90z m1284 4 c85 -48 164 -94 175 -101 17 -10 25
-8 57 13 101 69 261 51 351 -39 49 -50 69 -102 75 -194 l6 -84 110 -65 c143
-83 335 -201 335 -206 0 -2 -17 -29 -39 -59 -21 -31 -44 -69 -51 -86 -7 -16
-16 -30 -20 -30 -10 0 -81 40 -299 170 l-174 103 -49 -12 c-116 -26 -218 0
-286 73 -51 56 -64 79 -77 146 l-11 55 -170 103 c-93 56 -175 106 -183 111
-12 7 -7 21 26 72 23 35 47 76 54 92 7 15 13 27 14 27 0 0 71 -40 156 -89z
m-304 -358 c44 -93 90 -191 103 -220 19 -44 26 -52 56 -58 19 -3 51 -20 71
-38 127 -111 51 -307 -119 -307 -45 0 -62 5 -96 30 -23 16 -49 42 -59 56 -25
39 -23 120 5 180 l23 49 -96 199 c-53 109 -94 202 -93 207 3 7 102 64 119 68
3 0 42 -74 86 -166z m-724 123 c31 -15 56 -31 54 -34 -2 -4 -46 -96 -97 -205
l-93 -197 21 -44 c61 -121 -2 -252 -127 -264 -68 -6 -95 2 -141 44 -47 42 -65
90 -56 152 10 72 85 152 142 152 16 0 26 11 37 38 37 90 188 393 195 390 4 -2
33 -16 65 -32z m397 -781 l0 -725 -110 0 -110 0 0 725 0 725 110 0 110 0 0
-725z m-2335 298 c104 -36 178 -105 228 -212 27 -57 31 -77 32 -151 0 -80 -3
-92 -38 -162 -60 -122 -151 -192 -285 -218 -164 -33 -326 52 -408 211 -37 72
-45 191 -19 285 55 204 284 319 490 247z m4739 -16 c70 -32 150 -111 181 -180
14 -30 27 -82 31 -122 25 -269 -208 -480 -467 -421 -158 36 -267 151 -300 319
-30 145 60 321 200 396 103 55 246 58 355 8z m-727 -637 l52 -99 -272 -162
c-150 -89 -416 -249 -592 -354 -176 -106 -330 -197 -342 -203 -20 -11 -24 -7
-63 69 -23 45 -47 90 -53 100 -7 12 -8 22 -2 27 6 5 269 163 585 352 316 189
584 349 595 356 11 7 25 13 30 13 6 0 33 -44 62 -99z m-2965 -236 c464 -270
579 -338 652 -386 11 -7 -82 -208 -96 -208 -11 0 -347 197 -1055 620 l-173
103 31 51 c17 28 40 72 52 98 13 28 27 46 34 43 7 -2 257 -147 555 -321z
m1250 -395 c115 -25 228 -112 278 -214 22 -44 25 -63 25 -160 0 -105 -2 -114
-33 -177 -38 -78 -110 -149 -192 -187 -48 -23 -68 -26 -155 -26 -93 0 -105 2
-166 32 -193 95 -274 343 -177 537 27 54 106 129 167 160 88 45 159 55 253 35z"/>
</g>
</svg>
