<svg id="ecppceb3m1yq1" xmlns="http://www.w3.org/2000/svg" xmlns:xlink="http://www.w3.org/1999/xlink" viewBox="0 0 512 512" shape-rendering="geometricPrecision" text-rendering="geometricPrecision"><style><![CDATA[#ecppceb3m1yq4_tr {animation: ecppceb3m1yq4_tr__tr 3000ms linear infinite normal forwards}@keyframes ecppceb3m1yq4_tr__tr { 0% {transform: translate(256px,312.114000px) rotate(0deg)} 100% {transform: translate(256px,312.114000px) rotate(45deg)} }#ecppceb3m1yq5_ts {animation: ecppceb3m1yq5_ts__ts 3000ms linear infinite normal forwards}@keyframes ecppceb3m1yq5_ts__ts { 0% {transform: translate(256.002000px,312.114000px) rotate(67.500000deg) scale(1,0.730729)} 46.666667% {transform: translate(256.002000px,312.114000px) rotate(67.500000deg) scale(1,0.730729)} 50% {transform: translate(256.002000px,312.114000px) rotate(67.500000deg) scale(0,0.730729)} 100% {transform: translate(256.002000px,312.114000px) rotate(67.500000deg) scale(0,0.730729)} }#ecppceb3m1yq7_ts {animation: ecppceb3m1yq7_ts__ts 3000ms linear infinite normal forwards}@keyframes ecppceb3m1yq7_ts__ts { 0% {transform: translate(256.002000px,312.114000px) rotate(-112.500000deg) scale(0,0.730000)} 46.666667% {transform: translate(256.002000px,312.114000px) rotate(-112.500000deg) scale(0,0.730000)} 50% {transform: translate(256.002000px,312.114000px) rotate(-112.500000deg) scale(1,0.730000)} 100% {transform: translate(256.002000px,312.114000px) rotate(-112.500000deg) scale(1,0.730000)} }#ecppceb3m1yq11_ts {animation: ecppceb3m1yq11_ts__ts 3000ms linear infinite normal forwards}@keyframes ecppceb3m1yq11_ts__ts { 0% {transform: translate(256.002000px,312.114000px) rotate(-90deg) scale(1,0.860000)} 66.666667% {transform: translate(256.002000px,312.114000px) rotate(-90deg) scale(1,1)} 100% {transform: translate(256.002000px,312.114000px) rotate(-90deg) scale(1,1)} }#ecppceb3m1yq12_ts {animation: ecppceb3m1yq12_ts__ts 3000ms linear infinite normal forwards}@keyframes ecppceb3m1yq12_ts__ts { 0% {transform: translate(256.002000px,312.114000px) rotate(45deg) scale(1,1)} 66.666667% {transform: translate(256.002000px,312.114000px) rotate(45deg) scale(1,1)} 96.666667% {transform: translate(256.002000px,312.114000px) rotate(45deg) scale(1,0.860000)} 100% {transform: translate(256.002000px,312.114000px) rotate(45deg) scale(1,0.860000)} }#ecppceb3m1yq15_to {animation: ecppceb3m1yq15_to__to 3000ms linear infinite normal forwards}@keyframes ecppceb3m1yq15_to__to { 0% {transform: translate(-187.142105px,8.239109px)} 100% {transform: translate(96.605813px,8.319341px)} }#ecppceb3m1yq19_to {animation: ecppceb3m1yq19_to__to 3000ms linear infinite normal forwards}@keyframes ecppceb3m1yq19_to__to { 0% {transform: translate(93.569819px,3.234519px)} 100% {transform: translate(-46.755430px,3.720000px)} }]]></style><g id="ecppceb3m1yq2"><g id="ecppceb3m1yq3"><g id="ecppceb3m1yq4_tr" transform="translate(256,312.114000) rotate(0)"><g id="ecppceb3m1yq4" transform="translate(-256,-312.114000)"><g id="ecppceb3m1yq5_ts" transform="translate(256.002000,312.114000) rotate(67.500000) scale(1,0.730729)"><path id="ecppceb3m1yq5" d="M256,134.164000C261.522000,134.164000,266,131.099935,266,127.321515L266,62.709302C266,58.930882,261.522000,55.866817,256,55.866817C250.478000,55.866817,246,58.930882,246,62.709302L246,127.322200C246,131.100620,250.478000,134.164000,256,134.164000Z" transform="translate(-257.672274,-377.648176)" fill="rgb(0,0,0)" stroke="none" stroke-width="1"/></g><path id="ecppceb3m1yq6" d="M256,134.164000C261.522000,134.164000,266,131.099935,266,127.321515L266,62.709302C266,58.930882,261.522000,55.866817,256,55.866817C250.478000,55.866817,246,58.930882,246,62.709302L246,127.322200C246,131.100620,250.478000,134.164000,256,134.164000Z" transform="matrix(0.38268343236509 -0.92387953251129 0.67510530853603 0.27963777482570 -97.55719854995692 444.56744475727226)" fill="rgb(0,0,0)" stroke="none" stroke-width="1"/><g id="ecppceb3m1yq7_ts" transform="translate(256.002000,312.114000) rotate(-112.500000) scale(0,0.730000)"><path id="ecppceb3m1yq7" d="M256,134.164000C261.522000,134.164000,266,131.099935,266,127.321515L266,62.709302C266,58.930882,261.522000,55.866817,256,55.866817C250.478000,55.866817,246,58.930882,246,62.709302L246,127.322200C246,131.100620,250.478000,134.164000,256,134.164000Z" transform="translate(-257.672274,-377.648176)" fill="rgb(0,0,0)" stroke="none" stroke-width="1"/></g><path id="ecppceb3m1yq8" d="M256,134.164000C261.522000,134.164000,266,131.099935,266,127.321515L266,62.709302C266,58.930882,261.522000,55.866817,256,55.866817C250.478000,55.866817,246,58.930882,246,62.709302L246,127.322200C246,131.100620,250.478000,134.164000,256,134.164000Z" transform="matrix(0.92387953251129 -0.38268343236509 0.27963777482570 0.67510530853603 -87.66083582494048 155.76862213382952)" fill="rgb(0,0,0)" stroke="none" stroke-width="1"/><path id="ecppceb3m1yq9" d="M256,134.164000C261.522000,134.164000,266,131.099935,266,127.321515L266,62.709302C266,58.930882,261.522000,55.866817,256,55.866817C250.478000,55.866817,246,58.930882,246,62.709302L246,127.322200C246,131.100620,250.478000,134.164000,256,134.164000Z" transform="matrix(0.92387953251129 0.38268343236509 -0.27963777482570 0.67510530853603 123.54855524272767 -41.44519854995696)" fill="rgb(0,0,0)" stroke="none" stroke-width="1"/><path id="ecppceb3m1yq10" d="M256,134.164000C261.522000,134.164000,266,129.686000,266,124.164000L266,29.736000C266,24.214000,261.522000,19.736000,256,19.736000C250.478000,19.736000,246,24.214000,246,29.736000L246,124.165000C246,129.687000,250.478000,134.164000,256,134.164000Z" transform="matrix(0.70710678118655 -0.70710678118655 0.70710678118655 0.70710678118655 -145.71667610057665 272.43682429406044)" fill="rgb(0,0,0)" stroke="none" stroke-width="1"/><g id="ecppceb3m1yq11_ts" transform="translate(256.002000,312.114000) rotate(-90) scale(1,0.860000)"><path id="ecppceb3m1yq11" d="M256,134.164000C261.522000,134.164000,266,129.686000,266,124.164000L266,29.736000C266,24.214000,261.522000,19.736000,256,19.736000C250.478000,19.736000,246,24.214000,246,29.736000L246,124.165000C246,129.687000,250.478000,134.164000,256,134.164000Z" transform="translate(-256.002000,-312.114000)" fill="rgb(0,0,0)" stroke="none" stroke-width="1"/></g><g id="ecppceb3m1yq12_ts" transform="translate(256.002000,312.114000) rotate(45) scale(1,1)"><path id="ecppceb3m1yq12" d="M256,134.164000C261.522000,134.164000,266,129.686000,266,124.164000L266,29.736000C266,24.214000,261.522000,19.736000,256,19.736000C250.478000,19.736000,246,24.214000,246,29.736000L246,124.165000C246,129.687000,250.478000,134.164000,256,134.164000Z" transform="translate(-256.002000,-312.114000)" fill="rgb(0,0,0)" stroke="none" stroke-width="1"/></g><path id="ecppceb3m1yq13" d="M256,134.164000C261.522000,134.164000,266,129.686000,266,124.164000L266,29.736000C266,24.214000,261.522000,19.736000,256,19.736000C250.478000,19.736000,246,24.214000,246,29.736000L246,124.165000C246,129.687000,250.478000,134.164000,256,134.164000Z" fill="rgb(0,0,0)" stroke="none" stroke-width="1"/></g></g><path id="ecppceb3m1yq14" d="M502,302.113000L409.667000,302.113000C404.496000,221.841000,337.556000,158.113000,256,158.113000C174.444000,158.113000,107.505000,221.841000,102.333000,302.113000L10,302.113000C4.478000,302.113000,0,306.591000,0,312.113000C0,317.635000,4.478000,322.113000,10,322.113000L211,322.113000C216.522000,322.113000,221,317.635000,221,312.113000C221,306.591000,216.522000,302.113000,211,302.113000L122.373000,302.113000C127.505000,232.878000,185.476000,178.113000,256,178.113000C326.524000,178.113000,384.495000,232.878000,389.627000,302.113000L301,302.113000C295.478000,302.113000,291,306.591000,291,312.113000C291,317.635000,295.478000,322.113000,301,322.113000L502,322.113000C507.522000,322.113000,512,317.635000,512,312.113000C512,306.591000,507.522000,302.113000,502,302.113000Z" transform="matrix(1 0 0 1 0 -0.00099999999998)" fill="rgb(0,0,0)" stroke="none" stroke-width="1"/><g id="ecppceb3m1yq15_to" transform="translate(-187.142105,8.239109)"><g id="ecppceb3m1yq15" transform="translate(0,0)"><path id="ecppceb3m1yq16" d="M424.643000,375.745000C417.145000,383.244000,407.176000,387.373000,396.572000,387.373000C385.968000,387.373000,375.999000,383.244000,368.501000,375.745000C345.224000,352.470000,307.350000,352.470000,284.072000,375.745000C276.574000,383.244000,266.605000,387.373000,256.001000,387.373000C245.397000,387.373000,235.428000,383.244000,227.930000,375.745000C204.652000,352.470000,166.778000,352.470000,143.501000,375.745000C136.003000,383.244000,126.033000,387.373000,115.430000,387.373000C104.826000,387.373000,94.857000,383.244000,87.359000,375.745000C83.454000,371.843000,77.124000,371.841000,73.216000,375.745000C69.311000,379.650000,69.311000,385.982000,73.216000,389.888000C84.491000,401.163000,99.484000,407.373000,115.430000,407.373000C131.376000,407.373000,146.368000,401.163000,157.644000,389.888000C173.123000,374.409000,198.309000,374.409000,213.788000,389.888000C225.063000,401.163000,240.056000,407.373000,256.002000,407.373000C271.948000,407.373000,286.940000,401.163000,298.216000,389.888000C313.694000,374.409000,338.880000,374.409000,354.360000,389.888000C365.636000,401.163000,380.628000,407.373000,396.574000,407.373000C412.520000,407.373000,427.512000,401.163000,438.788000,389.888000C442.693000,385.983000,442.693000,379.651000,438.788000,375.745000C434.879000,371.841000,428.547000,371.841000,424.643000,375.745000Z" transform="matrix(1 0 0 1 283.47359108000018 -0.00000341999862)" fill="rgb(0,0,0)" stroke="none" stroke-width="1"/><path id="ecppceb3m1yq17" d="M424.643000,375.745000C417.145000,383.244000,407.176000,387.373000,396.572000,387.373000C385.968000,387.373000,375.999000,383.244000,368.501000,375.745000C345.224000,352.470000,307.350000,352.470000,284.072000,375.745000C276.574000,383.244000,266.605000,387.373000,256.001000,387.373000C245.397000,387.373000,235.428000,383.244000,227.930000,375.745000C204.652000,352.470000,166.778000,352.470000,143.501000,375.745000C136.003000,383.244000,126.033000,387.373000,115.430000,387.373000C104.826000,387.373000,94.857000,383.244000,87.359000,375.745000C83.454000,371.843000,77.124000,371.841000,73.216000,375.745000C69.311000,379.650000,69.311000,385.982000,73.216000,389.888000C84.491000,401.163000,99.484000,407.373000,115.430000,407.373000C131.376000,407.373000,146.368000,401.163000,157.644000,389.888000C173.123000,374.409000,198.309000,374.409000,213.788000,389.888000C225.063000,401.163000,240.056000,407.373000,256.002000,407.373000C271.948000,407.373000,286.940000,401.163000,298.216000,389.888000C313.694000,374.409000,338.880000,374.409000,354.360000,389.888000C365.636000,401.163000,380.628000,407.373000,396.574000,407.373000C412.520000,407.373000,427.512000,401.163000,438.788000,389.888000C442.693000,385.983000,442.693000,379.651000,438.788000,375.745000C434.879000,371.841000,428.547000,371.841000,424.643000,375.745000Z" transform="matrix(1 0 0 1 0.62655737000000 -0.00000341999743)" fill="rgb(0,0,0)" stroke="none" stroke-width="1"/><path id="ecppceb3m1yq18" d="M424.643000,375.745000C417.145000,383.244000,407.176000,387.373000,396.572000,387.373000C385.968000,387.373000,375.999000,383.244000,368.501000,375.745000C345.224000,352.470000,307.350000,352.470000,284.072000,375.745000C276.574000,383.244000,266.605000,387.373000,256.001000,387.373000C245.397000,387.373000,235.428000,383.244000,227.930000,375.745000C204.652000,352.470000,166.778000,352.470000,143.501000,375.745000C136.003000,383.244000,126.033000,387.373000,115.430000,387.373000C104.826000,387.373000,94.857000,383.244000,87.359000,375.745000C83.454000,371.843000,77.124000,371.841000,73.216000,375.745000C69.311000,379.650000,69.311000,385.982000,73.216000,389.888000C84.491000,401.163000,99.484000,407.373000,115.430000,407.373000C131.376000,407.373000,146.368000,401.163000,157.644000,389.888000C173.123000,374.409000,198.309000,374.409000,213.788000,389.888000C225.063000,401.163000,240.056000,407.373000,256.002000,407.373000C271.948000,407.373000,286.940000,401.163000,298.216000,389.888000C313.694000,374.409000,338.880000,374.409000,354.360000,389.888000C365.636000,401.163000,380.628000,407.373000,396.574000,407.373000C412.520000,407.373000,427.512000,401.163000,438.788000,389.888000C442.693000,385.983000,442.693000,379.651000,438.788000,375.745000C434.879000,371.841000,428.547000,371.841000,424.643000,375.745000Z" transform="matrix(1 0 0 1 -281.33435797500096 0.00000000000273)" fill="rgb(0,0,0)" stroke="none" stroke-width="1"/></g></g><g id="ecppceb3m1yq19_to" transform="translate(93.569819,3.234519)"><g id="ecppceb3m1yq19" transform="translate(0,0)"><path id="ecppceb3m1yq20" d="M354.357000,460.664000C346.859000,468.163000,336.889000,472.292000,326.286000,472.292000C315.682000,472.292000,305.712000,468.163000,298.214000,460.664000C286.939000,449.389000,271.946000,443.179000,256,443.179000C240.054000,443.179000,225.062000,449.389000,213.786000,460.664000C206.288000,468.163000,196.318000,472.292000,185.714000,472.292000C175.110000,472.292000,165.141000,468.163000,157.643000,460.664000C153.737000,456.760000,147.407000,456.760000,143.500000,460.664000C139.595000,464.569000,139.595000,470.901000,143.500000,474.807000C166.778000,498.084000,204.652000,498.082000,227.929000,474.807000C235.427000,467.308000,245.396000,463.179000,256,463.179000C266.604000,463.179000,276.573000,467.308000,284.071000,474.807000C295.710000,486.446000,310.998000,492.264000,326.286000,492.264000C341.573000,492.264000,356.861000,486.446000,368.500000,474.807000C372.405000,470.902000,372.405000,464.570000,368.500000,460.664000C364.594000,456.760000,358.264000,456.760000,354.357000,460.664000Z" transform="matrix(1 0 0 1 279.16825793000032 0)" fill="rgb(0,0,0)" stroke="none" stroke-width="1"/><path id="ecppceb3m1yq21" d="M354.357000,460.664000C346.859000,468.163000,336.889000,472.292000,326.286000,472.292000C315.682000,472.292000,305.712000,468.163000,298.214000,460.664000C286.939000,449.389000,271.946000,443.179000,256,443.179000C240.054000,443.179000,225.062000,449.389000,213.786000,460.664000C206.288000,468.163000,196.318000,472.292000,185.714000,472.292000C175.110000,472.292000,165.141000,468.163000,157.643000,460.664000C153.737000,456.760000,147.407000,456.760000,143.500000,460.664000C139.595000,464.569000,139.595000,470.901000,143.500000,474.807000C166.778000,498.084000,204.652000,498.082000,227.929000,474.807000C235.427000,467.308000,245.396000,463.179000,256,463.179000C266.604000,463.179000,276.573000,467.308000,284.071000,474.807000C295.710000,486.446000,310.998000,492.264000,326.286000,492.264000C341.573000,492.264000,356.861000,486.446000,368.500000,474.807000C372.405000,470.902000,372.405000,464.570000,368.500000,460.664000C364.594000,456.760000,358.264000,456.760000,354.357000,460.664000Z" transform="matrix(1 0 0 1 -279.64028392000000 0)" fill="rgb(0,0,0)" stroke="none" stroke-width="1"/><path id="ecppceb3m1yq22" d="M354.357000,460.664000C346.859000,468.163000,336.889000,472.292000,326.286000,472.292000C315.682000,472.292000,305.712000,468.163000,298.214000,460.664000C286.939000,449.389000,271.946000,443.179000,256,443.179000C240.054000,443.179000,225.062000,449.389000,213.786000,460.664000C206.288000,468.163000,196.318000,472.292000,185.714000,472.292000C175.110000,472.292000,165.141000,468.163000,157.643000,460.664000C153.737000,456.760000,147.407000,456.760000,143.500000,460.664000C139.595000,464.569000,139.595000,470.901000,143.500000,474.807000C166.778000,498.084000,204.652000,498.082000,227.929000,474.807000C235.427000,467.308000,245.396000,463.179000,256,463.179000C266.604000,463.179000,276.573000,467.308000,284.071000,474.807000C295.710000,486.446000,310.998000,492.264000,326.286000,492.264000C341.573000,492.264000,356.861000,486.446000,368.500000,474.807000C372.405000,470.902000,372.405000,464.570000,368.500000,460.664000C364.594000,456.760000,358.264000,456.760000,354.357000,460.664000Z" transform="matrix(1 0 0 1 140.57124999999996 0)" fill="rgb(0,0,0)" stroke="none" stroke-width="1"/><path id="ecppceb3m1yq23" d="M354.357000,460.664000C346.859000,468.163000,336.889000,472.292000,326.286000,472.292000C315.682000,472.292000,305.712000,468.163000,298.214000,460.664000C286.939000,449.389000,271.946000,443.179000,256,443.179000C240.054000,443.179000,225.062000,449.389000,213.786000,460.664000C206.288000,468.163000,196.318000,472.292000,185.714000,472.292000C175.110000,472.292000,165.141000,468.163000,157.643000,460.664000C153.737000,456.760000,147.407000,456.760000,143.500000,460.664000C139.595000,464.569000,139.595000,470.901000,143.500000,474.807000C166.778000,498.084000,204.652000,498.082000,227.929000,474.807000C235.427000,467.308000,245.396000,463.179000,256,463.179000C266.604000,463.179000,276.573000,467.308000,284.071000,474.807000C295.710000,486.446000,310.998000,492.264000,326.286000,492.264000C341.573000,492.264000,356.861000,486.446000,368.500000,474.807000C372.405000,470.902000,372.405000,464.570000,368.500000,460.664000C364.594000,456.760000,358.264000,456.760000,354.357000,460.664000Z" transform="matrix(1 0 0 1 -140.57125000499968 0)" fill="rgb(0,0,0)" stroke="none" stroke-width="1"/><path id="ecppceb3m1yq24" d="M354.357000,460.664000C346.859000,468.163000,336.889000,472.292000,326.286000,472.292000C315.682000,472.292000,305.712000,468.163000,298.214000,460.664000C286.939000,449.389000,271.946000,443.179000,256,443.179000C240.054000,443.179000,225.062000,449.389000,213.786000,460.664000C206.288000,468.163000,196.318000,472.292000,185.714000,472.292000C175.110000,472.292000,165.141000,468.163000,157.643000,460.664000C153.737000,456.760000,147.407000,456.760000,143.500000,460.664000C139.595000,464.569000,139.595000,470.901000,143.500000,474.807000C166.778000,498.084000,204.652000,498.082000,227.929000,474.807000C235.427000,467.308000,245.396000,463.179000,256,463.179000C266.604000,463.179000,276.573000,467.308000,284.071000,474.807000C295.710000,486.446000,310.998000,492.264000,326.286000,492.264000C341.573000,492.264000,356.861000,486.446000,368.500000,474.807000C372.405000,470.902000,372.405000,464.570000,368.500000,460.664000C364.594000,456.760000,358.264000,456.760000,354.357000,460.664000Z" fill="rgb(0,0,0)" stroke="none" stroke-width="1"/></g></g><path id="ecppceb3m1yq25" d="M263.069000,319.184000C264.929000,317.324000,266,314.744000,266,312.114000C266,309.484000,264.930000,306.904000,263.069000,305.045000C261.210000,303.185000,258.630000,302.114000,256,302.114000C253.359000,302.114000,250.790000,303.184000,248.930000,305.045000C247.070000,306.904000,246,309.484000,246,312.114000C246,314.744000,247.069000,317.324000,248.930000,319.184000C250.791000,321.044000,253.370000,322.114000,256,322.114000C258.630000,322.114000,261.210000,321.044000,263.069000,319.184000Z" fill="rgb(0,0,0)" stroke="none" stroke-width="1"/></g></g></svg>